<?xml version="1.0" standalone="no"?>
<!DOCTYPE svg PUBLIC "-//W3C//DTD SVG 20010904//EN"
 "http://www.w3.org/TR/2001/REC-SVG-20010904/DTD/svg10.dtd">
<svg version="1.0" xmlns="http://www.w3.org/2000/svg"
 width="320.000000pt" height="320.000000pt" viewBox="0 0 320.000000 320.000000"
 preserveAspectRatio="xMidYMid meet">
<metadata>
Created by potrace 1.14, written by Peter Selinger 2001-2017
</metadata>
<g transform="translate(0.000000,320.000000) scale(0.100000,-0.100000)"
fill="#000000" stroke="none">
<path d="M1810 3052 c-28 -9 -59 -44 -65 -74 -9 -40 9 -79 48 -104 31 -20 33
-25 32 -75 0 -60 2 -58 -80 -44 -22 4 -60 10 -85 14 -39 5 -45 9 -48 33 -2 15
-22 48 -45 74 -23 26 -42 53 -43 61 -5 35 -15 44 -41 41 -21 -2 -29 -9 -31
-27 -4 -29 20 -51 47 -44 18 5 90 -65 92 -90 0 -6 2 -22 5 -35 4 -25 -15 -69
-52 -118 -13 -17 -24 -33 -24 -36 0 -2 47 7 104 22 105 26 220 77 222 99 1 6
2 33 3 60 1 44 4 50 30 61 41 17 67 69 55 110 -14 50 -78 87 -124 72z"/>
<path d="M1151 2933 c-35 -24 -26 -74 15 -87 20 -6 24 -15 50 -116 3 -11 -18
-27 -69 -52 l-73 -36 -32 50 c-29 44 -32 53 -23 79 27 77 -60 134 -109 72 -36
-46 1 -117 56 -107 18 3 30 -6 53 -40 17 -25 31 -48 31 -53 0 -4 -22 -8 -50
-9 -37 -1 -58 -8 -84 -27 -33 -26 -35 -26 -41 -7 -9 29 -61 68 -101 76 -78 14
-165 -44 -180 -121 -5 -28 -11 -35 -29 -35 -36 0 -101 -78 -81 -97 3 -4 151
-6 329 -6 l323 1 64 35 c36 19 93 45 128 58 57 20 69 30 125 100 35 43 73 96
85 118 l23 41 -38 0 c-28 0 -45 7 -62 26 -13 14 -41 34 -61 44 -33 17 -50 21
-134 35 -16 2 -29 5 -30 7 -1 2 -7 15 -13 29 -14 32 -45 42 -72 22z m245 -108
c30 -14 54 -29 54 -35 0 -17 -5 -25 -15 -26 -24 -2 -94 -17 -139 -30 -53 -15
-64 -11 -71 25 -2 12 -7 32 -10 44 -19 66 -24 61 55 53 43 -4 94 -16 126 -31z
m-422 19 c39 -15 42 -65 5 -85 -41 -22 -80 27 -54 67 16 25 23 28 49 18z"/>
<path d="M1971 2780 c-70 -15 -62 -22 14 -14 155 17 204 -2 208 -79 1 -20 6
-37 11 -37 19 0 -3 83 -28 109 -22 22 -36 26 -93 28 -38 1 -88 -2 -112 -7z"/>
<path d="M2361 2744 c-31 -22 -51 -71 -41 -104 8 -28 3 -38 -47 -83 l-31 -29
-63 47 c-62 46 -190 111 -261 134 -35 11 -40 10 -87 -23 -52 -35 -135 -66
-230 -86 -48 -9 -141 -44 -141 -52 0 -2 42 -2 92 -1 51 1 117 -3 146 -9 52
-11 54 -10 85 19 42 39 73 51 122 47 79 -7 128 -66 129 -153 1 -42 6 -65 18
-77 15 -15 23 -13 112 30 53 25 102 46 110 46 24 0 29 20 12 39 -16 17 -14 21
24 54 34 32 43 35 65 27 58 -22 106 -4 134 48 22 41 4 100 -38 125 -37 21 -80
22 -110 1z m96 -39 c42 -29 13 -105 -41 -105 -48 0 -73 64 -39 102 20 22 51
23 80 3z"/>
<path d="M1864 2543 c-40 -7 -63 -46 -89 -148 -15 -55 -30 -103 -34 -108 -4
-4 -14 -1 -24 5 -15 12 -15 19 2 90 l18 78 -41 11 c-53 15 -171 18 -243 7
-177 -28 -363 -157 -424 -294 -40 -90 -39 -211 2 -299 51 -109 145 -167 444
-275 232 -84 270 -108 294 -181 22 -68 -11 -142 -79 -176 -55 -28 -113 -29
-183 -3 l-54 20 23 86 c26 97 28 101 46 87 7 -6 24 -13 38 -16 14 -4 55 -15
93 -26 105 -31 68 -6 -44 30 l-101 32 6 32 c7 36 3 38 -96 74 l-56 20 -6 -25
c-6 -21 -12 -25 -39 -22 -38 4 -38 24 1 21 25 -2 26 -1 8 12 -10 7 -15 18 -12
23 3 6 -2 8 -14 5 -11 -3 -52 12 -100 36 -44 22 -80 37 -80 33 0 -8 70 -52
118 -73 36 -16 38 -21 17 -39 -13 -11 -57 -10 -155 5 -14 2 -68 9 -120 16
-109 14 -140 23 -140 42 0 24 31 119 37 113 3 -3 17 1 32 8 23 13 33 11 85
-11 78 -32 83 -22 8 16 -53 27 -59 33 -56 57 1 15 8 31 15 35 8 4 10 11 6 15
-3 4 -13 1 -21 -5 -20 -16 -56 2 -57 29 -1 11 -2 30 -3 43 -3 33 20 146 39
192 14 35 14 38 0 20 -25 -32 -47 -114 -52 -199 -4 -58 -11 -84 -24 -97 -23
-23 -24 -56 -5 -78 12 -14 11 -25 -7 -84 -20 -64 -23 -68 -47 -62 -33 9 -32 7
-35 65 -1 28 -4 53 -7 55 -2 3 -18 -12 -34 -32 -46 -58 -101 -93 -147 -93
l-40 0 6 -62 c3 -35 9 -78 13 -97 7 -31 6 -33 -13 -22 -46 24 -160 150 -171
189 -17 55 -15 67 12 97 l23 25 54 -17 c63 -19 72 -25 76 -55 5 -31 8 -33 52
-20 28 9 55 31 97 80 33 37 64 72 70 77 6 6 19 43 28 83 36 151 99 268 198
363 37 36 68 68 68 71 0 7 -295 7 -307 0 -30 -19 -116 -180 -143 -267 -7 -22
-15 -43 -19 -47 -3 -4 -21 7 -40 24 -28 25 -32 34 -23 48 38 62 17 143 -35
134 -44 -7 -72 -25 -94 -61 -22 -35 -28 -98 -11 -115 11 -11 75 -14 90 -4 6 3
31 -13 56 -37 l47 -42 -15 -70 c-8 -38 -16 -91 -17 -117 -2 -28 -8 -48 -14
-48 -30 0 -112 35 -133 56 -27 28 -40 30 -70 8 -28 -19 -28 -48 1 -74 12 -12
22 -24 22 -28 6 -86 50 -149 178 -257 64 -54 98 -61 154 -32 35 18 116 104
109 115 -8 13 -15 62 -9 62 7 0 42 -43 43 -52 0 -12 99 -108 111 -108 6 0 -14
27 -44 60 -34 36 -54 66 -52 77 2 10 4 24 4 31 1 7 4 11 9 9 7 -5 176 -30 277
-42 28 -3 62 -8 77 -11 l27 -5 -20 -22 c-29 -32 -4 -33 27 -2 23 23 31 26 68
20 22 -4 42 -8 44 -10 2 -1 -5 -33 -14 -70 -19 -76 -9 -74 -133 -20 -73 33
-88 36 -124 29 -33 -7 -47 -18 -75 -58 -39 -56 -47 -105 -25 -150 24 -47 62
-72 163 -106 52 -18 96 -34 98 -35 1 -1 -7 -40 -18 -86 -11 -46 -20 -93 -20
-105 0 -35 44 -74 83 -74 59 0 96 44 113 134 2 14 9 38 15 53 6 16 10 29 9 31
-5 11 15 72 24 72 35 -1 37 -15 16 -105 -11 -49 -17 -92 -13 -96 13 -13 64
-21 163 -25 237 -9 466 118 561 311 31 64 34 77 34 165 0 82 -4 102 -26 147
l-25 52 53 19 54 20 26 -39 c14 -21 23 -44 20 -51 -39 -98 -46 -118 -37 -113
5 3 19 26 30 51 11 24 22 44 25 44 2 0 15 -25 29 -55 23 -51 24 -57 10 -90 -7
-19 -14 -39 -14 -45 0 -12 71 22 118 57 43 33 49 25 15 -20 -25 -33 -128 -96
-157 -97 -6 0 -31 -30 -55 -66 -53 -79 -164 -190 -245 -244 -50 -34 -69 -56
-121 -143 -62 -103 -91 -167 -76 -167 24 0 154 46 215 76 39 19 75 34 81 34 5
0 18 -23 28 -50 18 -50 18 -51 -3 -80 -18 -26 -25 -29 -63 -25 -55 6 -76 11
-111 24 -16 7 -31 9 -33 7 -9 -9 70 -36 121 -42 28 -4 55 -7 60 -8 6 0 21 -13
34 -29 14 -16 34 -27 48 -27 29 0 74 41 74 68 0 26 -45 72 -70 72 -16 0 -27
13 -44 52 l-23 53 71 52 c39 29 76 52 81 52 6 0 31 -27 56 -61 42 -55 45 -63
35 -89 -8 -24 -7 -33 11 -56 34 -45 91 -32 108 24 8 30 -36 76 -69 71 -18 -2
-35 11 -74 59 -29 34 -52 66 -52 70 0 4 13 17 28 28 24 18 45 20 197 21 199 2
185 0 185 17 0 26 -39 60 -69 61 -22 1 -32 7 -35 22 -6 23 -47 55 -74 57 -9 0
-30 -3 -46 -7 l-29 -7 19 28 c10 15 37 64 59 109 l40 81 84 -21 c79 -20 84
-23 98 -57 28 -71 131 -79 162 -12 15 32 14 48 -4 83 -28 53 -105 60 -147 13
-18 -19 -19 -19 -98 1 -44 11 -80 25 -80 31 1 5 7 34 14 64 11 50 15 55 42 56
108 6 179 59 191 143 2 12 13 32 23 42 27 27 25 38 -14 79 -19 20 -58 61 -88
92 -29 31 -73 68 -98 82 -40 23 -46 32 -60 84 l-15 58 -123 3 c-68 1 -122 -1
-122 -6 0 -5 9 -29 19 -53 11 -24 27 -74 36 -111 11 -43 23 -69 34 -73 9 -3
47 -39 86 -81 38 -42 82 -82 97 -90 26 -13 28 -13 29 3 3 52 -2 164 -10 211
-5 31 -4 52 1 52 19 0 97 -61 137 -106 41 -47 49 -68 31 -79 -16 -10 -11 -45
10 -72 18 -23 18 -27 4 -61 -8 -21 -27 -47 -41 -60 -29 -24 -93 -45 -126 -40
-19 3 -21 9 -19 43 3 38 1 42 -37 63 -22 12 -67 52 -100 88 -33 36 -65 63 -71
59 -6 -3 -8 -9 -6 -13 2 -4 -13 -15 -35 -24 l-38 -16 -7 36 c-4 21 -16 55 -26
76 -17 32 -18 46 -10 73 12 40 14 213 2 213 -5 0 -8 -33 -7 -72 0 -40 -3 -90
-7 -112 l-7 -39 -41 39 c-42 41 -38 20 6 -30 15 -16 26 -31 26 -34 0 -10 -53
-113 -61 -117 -4 -3 -20 7 -36 21 -39 36 -130 106 -177 134 l-38 23 42 41 c37
35 48 40 82 37 49 -3 83 18 104 67 30 70 14 138 -43 181 -15 11 -67 33 -115
48 -60 19 -88 33 -88 43 0 8 9 48 20 88 20 77 17 104 -16 133 -23 20 -51 28
-80 22z m-1370 -369 c17 -45 3 -90 -35 -109 -59 -31 -88 -9 -74 55 11 52 94
93 109 54z m1196 -18 l26 -11 -28 -115 c-16 -63 -27 -119 -24 -125 2 -6 37
-22 79 -37 l74 -26 18 66 c9 37 21 81 26 99 11 35 -1 37 123 -17 l50 -21 -34
-22 c-68 -45 -73 -46 -94 -35 -19 10 -20 10 -7 -6 12 -14 11 -20 -8 -39 -31
-34 -26 -41 14 -17 l36 22 77 -51 c42 -28 99 -71 127 -95 48 -42 49 -44 32
-67 -45 -65 -41 -65 -91 -16 -42 41 -135 94 -196 112 -14 4 -38 13 -55 20 -16
8 -88 34 -158 59 -161 58 -200 78 -227 117 -61 85 -15 195 93 219 38 8 111 2
147 -14z m626 -452 c5 -36 4 -40 -24 -50 -34 -13 -62 -2 -62 24 0 16 21 64 44
101 12 18 33 -21 42 -75z m98 -65 c-2 -67 -21 -180 -33 -192 -4 -4 -20 15 -34
42 -24 43 -26 55 -18 90 5 23 9 44 10 46 1 3 1 9 1 15 0 12 51 40 65 36 6 -2
10 -18 9 -37z m-187 4 c4 -12 -35 -29 -44 -19 -8 8 18 37 30 33 6 -2 12 -8 14
-14z m90 -28 c-4 -33 -12 -39 -27 -20 -15 18 -6 45 15 45 11 0 15 -8 12 -25z
m-1503 -47 c-3 -5 -12 -4 -20 3 -7 6 -11 15 -8 21 3 5 12 4 20 -3 7 -6 11 -15
8 -21z m2047 -278 c29 -16 26 -67 -6 -82 -27 -12 -55 2 -55 28 0 17 22 18 38
2 9 -9 12 -9 12 1 0 8 -7 19 -17 26 -9 7 -13 17 -9 23 9 15 12 15 37 2z m-398
-567 c8 -10 16 -22 16 -28 0 -15 -30 -45 -45 -45 -17 0 -44 28 -44 45 0 17 27
45 44 45 7 0 20 -8 29 -17z"/>
<path d="M2385 2453 c77 -17 96 -25 105 -49 7 -16 17 -24 34 -24 34 0 52 25
39 53 -10 21 -17 23 -104 23 -52 1 -85 -1 -74 -3z"/>
<path d="M2270 2407 c-69 -28 -137 -64 -145 -77 -3 -5 18 -33 48 -62 29 -29
64 -73 78 -97 l24 -44 250 1 c138 0 256 1 263 1 21 2 13 37 -15 65 -22 23 -33
26 -60 21 -25 -4 -33 -2 -33 8 0 27 -41 66 -75 73 -40 7 -64 0 -93 -26 l-21
-20 -18 26 c-42 60 -120 149 -134 151 -8 1 -39 -8 -69 -20z"/>
<path d="M2772 2017 c-29 -30 -30 -89 -2 -117 11 -11 23 -20 28 -21 4 0 16 -2
26 -4 25 -5 72 19 80 40 3 9 6 32 6 50 0 66 -92 101 -138 52z m101 -14 c41
-46 17 -97 -50 -109 -18 -3 -50 27 -57 52 -15 53 70 98 107 57z"/>
<path d="M306 1459 c-18 -14 -26 -30 -26 -50 0 -65 45 -99 105 -79 57 19 67
86 19 128 -31 28 -64 28 -98 1z m79 -5 c23 -9 36 -49 25 -78 -6 -16 -20 -27
-41 -31 -28 -6 -36 -3 -55 18 -44 52 6 116 71 91z"/>
<path d="M754 1409 c-35 -38 -98 -68 -142 -69 -32 0 -32 -1 -27 -37 4 -29 1
-44 -15 -61 l-20 -24 -26 21 c-36 28 -79 27 -109 -4 -14 -13 -25 -29 -25 -35
0 -5 -11 -10 -25 -10 -30 0 -75 -41 -75 -67 0 -17 13 -19 200 -18 l200 1 35
-51 c19 -27 54 -72 77 -98 l43 -48 70 36 c39 20 87 46 108 56 l38 20 -71 76
c-81 87 -138 179 -172 276 -12 37 -25 67 -29 67 -3 0 -18 -14 -35 -31z"/>
<path d="M2634 1176 c-12 -31 0 -51 31 -51 27 0 30 3 30 30 0 25 -4 30 -28 33
-17 2 -29 -2 -33 -12z"/>
<path d="M1005 948 c-44 -22 -91 -46 -104 -55 l-24 -15 29 -23 29 -24 -49 -50
c-48 -49 -50 -50 -96 -44 -42 5 -50 2 -78 -23 -52 -48 -44 -127 16 -158 78
-40 166 31 142 115 -9 32 -7 36 41 85 l51 52 70 -43 c71 -44 190 -96 266 -115
l43 -11 52 55 c59 61 112 83 230 93 61 5 67 4 67 -13 0 -17 -12 -21 -82 -32
-97 -15 -167 -46 -188 -84 -8 -15 -12 -29 -10 -32 6 -5 80 -14 128 -15 32 -1
32 -1 32 -51 0 -27 -4 -50 -9 -50 -5 0 -23 -12 -40 -26 -65 -54 -22 -164 64
-164 51 0 95 44 95 96 0 30 -7 44 -40 74 -34 32 -40 43 -40 78 0 41 1 42 33
43 17 0 51 2 75 5 39 6 42 4 42 -19 0 -30 30 -69 75 -97 28 -18 34 -26 29 -45
-4 -18 0 -27 19 -39 30 -20 55 -12 63 20 8 31 -11 54 -44 54 -33 0 -99 46
-117 80 -24 46 -10 100 50 204 30 53 55 98 55 100 0 2 -30 -5 -67 -16 -76 -22
-273 -31 -350 -17 -42 8 -48 7 -79 -21 -108 -94 -254 -30 -258 114 -1 66 -15
68 -121 14z m-191 -261 c12 -9 17 -23 14 -47 -7 -73 -108 -73 -108 0 0 52 52
78 94 47z"/>
<path d="M666 924 c-41 -41 -9 -65 79 -59 79 5 100 15 32 15 -34 0 -47 4 -47
14 0 16 -26 46 -40 46 -5 0 -16 -7 -24 -16z"/>
<path d="M968 663 c-15 -53 18 -105 76 -121 48 -14 132 -8 194 12 72 24 60 30
-18 10 -39 -10 -88 -15 -127 -12 -77 5 -104 26 -113 90 -4 33 -7 38 -12 21z"/>
<path d="M1361 506 c-9 -10 -8 -16 3 -25 10 -9 16 -8 25 3 9 10 8 16 -3 25
-10 9 -16 8 -25 -3z"/>
</g>
</svg>
